<?xml version="1.0" standalone="no"?><!DOCTYPE svg PUBLIC "-//W3C//DTD SVG 1.1//EN" "http://www.w3.org/Graphics/SVG/1.1/DTD/svg11.dtd"><svg t="1775725773472" class="icon" viewBox="0 0 1024 1024" version="1.1" xmlns="http://www.w3.org/2000/svg" p-id="3578" xmlns:xlink="http://www.w3.org/1999/xlink" width="200" height="200"><path d="M512 536a200 200 0 1 1 0-400 200 200 0 0 1 0 400z m0-48a152 152 0 1 0 0-304 152 152 0 0 0 0 304z m187.392 101.664a176.096 176.096 0 0 0-66.72 42.336H368a120 120 0 0 0-120 120v88h355.328c9.92 18.176 22.976 34.432 38.432 48H224a24 24 0 0 1-24-24v-112c0-92.8 75.2-168 168-168h288c15.008 0 29.536 1.952 43.392 5.664z m34.464 190.048h-88a24 24 0 0 1 0-48h88v-88a24 24 0 1 1 48 0v88h88a24 24 0 1 1 0 48h-88v88a24 24 0 0 1-48 0v-88z" fill="#8B4513" p-id="3579"></path></svg>