<svg xmlns="http://www.w3.org/2000/svg" viewBox="0 0 64 64">
  <path d="M12 12 Q8 12 8 16 L8 52 Q8 56 12 56 L52 56 Q56 56 56 52 L56 16 Q56 12 52 12 Z" fill="#8B4513"/>
  <path d="M12 12 Q8 12 8 16 L8 52 Q8 56 12 56 L52 56 Q56 56 56 52 L56 16 Q56 12 52 12 Z" fill="#A0522D"/>
  <rect x="14" y="14" width="40" height="40" rx="2" fill="#F5F5DC"/>
  <line x1="20" y1="24" x2="44" y2="24" stroke="#DEB887" stroke-width="3" stroke-linecap="round"/>
  <line x1="20" y1="32" x2="40" y2="32" stroke="#DEB887" stroke-width="2" stroke-linecap="round"/>
  <line x1="20" y1="40" x2="36" y2="40" stroke="#DEB887" stroke-width="2" stroke-linecap="round"/>
  <circle cx="48" cy="16" r="6" fill="#CD853F"/>
  <path d="M45 16 L48 19 L52 13" stroke="white" stroke-width="2" stroke-linecap="round" stroke-linejoin="round" fill="none"/>
</svg>