<?xml version="1.0" standalone="no"?><!DOCTYPE svg PUBLIC "-//W3C//DTD SVG 1.1//EN" "http://www.w3.org/Graphics/SVG/1.1/DTD/svg11.dtd"><svg t="1776741583436" class="icon" viewBox="0 0 1024 1024" version="1.1" xmlns="http://www.w3.org/2000/svg" p-id="3261" xmlns:xlink="http://www.w3.org/1999/xlink" width="200" height="200"><path d="M649 228.3l-0.4 0.1c-1.7 0.4-3.1 1.3-4.2 2.8L531.7 379.3l-17-2.5c-2-0.4-3.9 0.1-5.5 1.4-1.7 1.2-2.7 2.8-3 4.9-0.3 2.1 0.2 3.9 1.4 5.6 1.3 1.6 2.9 2.6 4.9 3l56.5 8.2 51.1 7.6c2 0.3 3.9-0.2 5.6-1.5 1.6-1.2 2.5-2.8 2.9-4.8 0.3-2.1-0.2-3.9-1.4-5.6-1.3-1.7-2.9-2.7-5-2.9l-43-6.4-30.5-4.5 97.4-128 6.5 35.1 49.9 271.3-84.3-12.4c-2.1-0.3-4 0.1-5.6 1.4-1.6 1.2-2.6 2.8-2.9 4.9-0.3 2.1 0.1 3.9 1.4 5.6 1.2 1.7 2.8 2.6 4.9 3l94.1 13.8c0.3 0 0.6 0.1 1 0.2l1.4 0.2 15.1 2.1c2 0.4 3.9-0.1 5.6-1.3 1.6-1.3 2.5-3 2.9-5 0.3-2-0.1-3.9-1.4-5.5-1.2-1.7-2.9-2.7-5-3l-11.5-1.7L663.4 265 791 431.7l-36 9.2c-2 0.5-3.6 1.7-4.6 3.5-1.1 1.8-1.4 3.6-0.8 5.6 0.5 2 1.6 3.6 3.4 4.7 1.7 1 3.7 1.3 5.7 0.8l50-12.8 11.9-3.1c2-0.6 3.6-1.7 4.6-3.5 1-1.8 1.4-3.7 0.8-5.7-0.5-2-1.6-3.5-3.4-4.6-1.8-1-3.7-1.3-5.7-0.8l-10.2 2.7-150.6-196.8c-0.2-0.2-0.4-0.5-0.7-0.7-0.6-0.6-1.2-1-1.9-1.4-1.1-0.4-2.1-0.6-3.3-0.6l-0.3 0.1h-0.9z" fill="#323333" p-id="3262"></path><path d="M892.5 447.3c-0.3-0.4-0.7-0.6-1.1-0.9l-0.7-0.4c-0.4-0.2-0.7-0.3-1.1-0.4l-0.9-0.2c-0.6-0.1-1.3-0.1-2-0.1-0.1 0-0.2 0-0.2 0.1h-0.1c-0.4 0-0.8 0.1-1.2 0.3l-0.6 0.1c-0.1 0-0.1 0-0.1 0.1-1 0.4-1.9 1-2.6 1.9-0.3 0.2-0.5 0.5-0.7 0.9l-28.9 38.2-26.1-34c-1.2-1.7-2.8-2.6-4.9-2.9-2.1-0.3-3.9 0.2-5.6 1.4v0.1c-1.6 1.3-2.5 2.9-2.8 4.9-0.3 2 0.2 3.9 1.5 5.5l57.8 75.7c0 0.1 0.1 0.1 0.2 0.2l51.3 67.2-189.1 49-11.4-61.8c-0.3-2-1.4-3.6-3.1-4.8-1.7-1.2-3.5-1.5-5.6-1.2-0.2 0.1-0.4 0.1-0.6 0.2-1.7 0.4-3.2 1.4-4.2 3-1.2 1.6-1.6 3.5-1.2 5.5l10.9 59.4-307.5-45.5-33-4.9 10-13.2 0.3-0.3 135.5-177.6c1.3-1.6 1.8-3.5 1.5-5.5-0.3-2.1-1.2-3.8-2.9-5-1.6-1.3-3.5-1.8-5.6-1.5-2 0.3-3.6 1.2-4.9 2.9l-95.9 125.7-17.2-22.2c-1.2-1.7-2.8-2.7-4.9-2.9-2.1-0.3-3.9 0.2-5.6 1.5-0.3 0.2-0.6 0.5-0.8 0.7-1.2 1.2-1.8 2.6-2 4.2-0.3 2.1 0.2 4 1.5 5.6l19.6 25.4-28.6 37.4-61.4 14.1-10.9-104.8c-0.2-2-1.1-3.7-2.7-5-1.7-1.4-3.5-1.9-5.5-1.7h-0.4c-1.9 0.3-3.4 1.2-4.7 2.7-1.3 1.6-1.8 3.5-1.6 5.5l10.7 103.5-128.6-20.7-27.5-4.5 10.8-14.1c1.3-1.7 1.8-3.5 1.5-5.6-0.3-2-1.2-3.6-2.9-4.9-1.7-1.2-3.5-1.7-5.5-1.4-2.1 0.2-3.8 1.2-5 2.8l-18.4 24.1c-1.1 1.4-1.6 3.1-1.6 4.8 0.1 1.8 0.7 3.3 1.9 4.7 1.2 1.3 2.7 2.1 4.4 2.4l177.6 28.7c1.1 0.2 2.3 0.2 3.5 0l52.1-12-5.5 7.2c-1.1 1.5-1.6 3.1-1.5 4.8 0 1.8 0.7 3.4 1.9 4.7 1.2 1.4 2.7 2.3 4.5 2.5l363.5 53.8c1.3 0.2 2.6 0 3.7-0.4l207.2-53.6c1.6-0.5 3-1.3 4-2.7 1.1-1.3 1.6-2.8 1.6-4.5s-0.5-3.3-1.6-4.6l-47.1-61.7h1c0.7 0 1.3-0.1 1.8-0.3l46.6-10c1.7-0.5 3.1-1.3 4.2-2.7 1.1-1.3 1.7-2.8 1.7-4.5 0-1.8-0.5-3.4-1.5-4.8l-55.7-72.6h-0.1c-0.2-0.3-0.4-0.5-0.6-0.7l-0.3-0.3z m-10.1 78.9l-20.7-27c0.2-0.1 0.3-0.3 0.5-0.5l19.8-26.2 5.7 54.5-5.3-0.8z m47.7-5.5l-27.4 6-5-48.3 32.4 42.3z" fill="#323333" p-id="3263"></path><path d="M861.7 499.2l20.7 27 5.3 0.8-5.7-54.5-19.8 26.2c-0.2 0.2-0.3 0.4-0.5 0.5z" fill="#979FCF" p-id="3264"></path><path d="M902.7 526.7l27.4-6-32.4-42.3 5 48.3z m-88.3-64.8c-1.3-1.6-1.8-3.5-1.5-5.5 0.3-2 1.2-3.6 2.8-4.9l-7-8.8-50 12.8c-2 0.5-4 0.2-5.7-0.8-1.8-1.1-2.9-2.7-3.4-4.7-0.6-2-0.3-3.8 0.8-5.6 1-1.8 2.6-3 4.6-3.5l36-9.2L663.4 265l54.8 297.5 11.5 1.7c2.1 0.3 3.8 1.3 5 3 1.3 1.6 1.7 3.5 1.4 5.5-0.4 2-1.3 3.7-2.9 5-1.7 1.2-3.6 1.7-5.6 1.3l-15.1-2.1 1.4 9.5c0.2-0.1 0.4-0.1 0.6-0.2 2.1-0.3 3.9 0 5.6 1.2 1.7 1.2 2.8 2.8 3.1 4.8l11.4 61.8 189.1-49-51.3-67.2c-0.1-0.1-0.2-0.1-0.2-0.2l-57.8-75.7z" fill="#EB9FAB" p-id="3265"></path><path d="M713.9 586.4l-1.4-9.5-1.4-0.2c-0.4-0.1-0.7-0.2-1-0.2L616 562.7c-2.1-0.4-3.7-1.3-4.9-3-1.3-1.7-1.7-3.5-1.4-5.6 0.3-2.1 1.3-3.7 2.9-4.9 1.6-1.3 3.5-1.7 5.6-1.4l84.3 12.4-49.9-271.3-73.4 97.4 43 6.4c2.1 0.2 3.7 1.2 5 2.9 1.2 1.7 1.7 3.5 1.4 5.6-0.4 2-1.3 3.6-2.9 4.8-1.7 1.3-3.6 1.8-5.6 1.5l-51.1-7.6-157.1 208.9 307.5 45.5-10.9-59.4c-0.4-2 0-3.9 1.2-5.5 1-1.6 2.5-2.6 4.2-3z m-149-34c-1.2-1.6-1.7-3.5-1.3-5.5 0.3-2 1.3-3.7 3-4.9 1.6-1.3 3.5-1.7 5.6-1.3l16.4 2.5c2 0.3 3.6 1.3 4.9 3 1.2 1.7 1.6 3.5 1.2 5.6-0.3 2.1-1.3 3.6-3 4.9-1.6 1.2-3.5 1.7-5.5 1.3l-16.4-2.6c-2.1-0.3-3.7-1.3-4.9-3z" fill="#979FCF" p-id="3266"></path><path d="M563.6 546.9c-0.4 2 0.1 3.9 1.3 5.5 1.2 1.7 2.8 2.7 4.9 3l16.4 2.6c2 0.4 3.9-0.1 5.5-1.3 1.7-1.3 2.7-2.8 3-4.9 0.4-2.1 0-3.9-1.2-5.6-1.3-1.7-2.9-2.7-4.9-3l-16.4-2.5c-2.1-0.4-4 0-5.6 1.3-1.7 1.2-2.7 2.9-3 4.9zM281.5 366.7c-0.4 0.3-0.8 0.7-1 1.1L161.9 523.1l-9.6-1.4c-2.1-0.3-3.9 0.2-5.6 1.4-1.7 1.3-2.7 2.8-2.9 4.9-0.4 2 0.1 3.9 1.4 5.6 1.2 1.6 2.8 2.6 4.9 2.9l45.8 6.7 13.5 2c2.1 0.3 4-0.2 5.6-1.4 1.7-1.3 2.6-2.9 2.9-4.9 0.3-2-0.1-3.9-1.4-5.5-0.6-0.9-1.3-1.5-2.1-2-0.9-0.5-1.7-0.9-2.8-1l-5.4-0.8-27.3-4 102.5-134.3 3.7 33.5 3.5 31.6-24.6-3.7-1.1-0.2c-2.1-0.3-3.9 0.2-5.6 1.4-1.7 1.3-2.7 2.9-3 5-0.3 1.8 0.1 3.6 1.2 5.2 0 0.1 0.1 0.1 0.2 0.3 1.2 1.6 2.9 2.6 4.9 3l35.2 5.3c0.1 0 0.1 0 0.2 0.1l1.2 0.2 10.5 1.6c2 0.3 3.9-0.2 5.5-1.4 1.7-1.3 2.7-2.8 3-4.9 0.3-2.1-0.1-3.9-1.3-5.6-1.3-1.7-2.9-2.7-4.9-3l-6.1-0.9-6.7-61 70.4 91.6-12.5 3.3c-2 0.5-3.5 1.6-4.6 3.4-1 1.8-1.3 3.7-0.8 5.7 0.5 1.9 1.7 3.5 3.5 4.6 1.7 1 3.6 1.3 5.7 0.8l25-6.5 8.8-2.2c1.9-0.6 3.5-1.7 4.5-3.5s1.4-3.7 0.8-5.6c-0.5-2-1.6-3.6-3.4-4.7-1.8-1-3.7-1.3-5.7-0.8l-5.5 1.5-90.5-118c-0.1 0-0.1 0-0.2-0.1l-0.2-0.3c-0.8-0.8-1.5-1.5-2.4-1.8l-1.4-0.5c-0.7-0.3-1.5-0.4-2.2-0.3-0.9 0-1.6 0.2-2.4 0.5-1 0.4-1.9 0.9-2.6 1.8z" fill="#323333" p-id="3267"></path><path d="M260.6 467.4c-2-0.4-3.7-1.4-4.9-3-0.1-0.2-0.2-0.2-0.2-0.3l-49.3 65.5 5.4 0.8c1.1 0.1 1.9 0.5 2.8 1 0.8 0.5 1.5 1.1 2.1 2 1.3 1.6 1.7 3.5 1.4 5.5-0.3 2-1.2 3.6-2.9 4.9-1.6 1.2-3.5 1.7-5.6 1.4l-13.5-2-22.1 29.5 128.6 20.7-10.7-103.5c-0.2-2 0.3-3.9 1.6-5.5 1.3-1.5 2.8-2.4 4.7-2.7l-0.8-8.7-1.2-0.2c-0.1-0.1-0.1-0.1-0.2-0.1l-35.2-5.3z" fill="#979FCF" p-id="3268"></path><path d="M303.9 458.8l6.1 0.9c2 0.3 3.6 1.3 4.9 3 1.2 1.7 1.6 3.5 1.3 5.6-0.3 2.1-1.3 3.6-3 4.9-1.6 1.2-3.5 1.7-5.5 1.4l-10.5-1.6 0.8 8.7h0.4c2-0.2 3.8 0.3 5.5 1.7 1.6 1.3 2.5 3 2.7 5l10.9 104.8 61.4-14.1 28.6-37.4-19.6-25.4c-1.3-1.6-1.8-3.5-1.5-5.6 0.2-1.6 0.8-3 2-4.2l-0.7-1-0.1-0.1-3.3-4.7-0.4 0.1v-0.1l-25 6.5c-2.1 0.5-4 0.2-5.7-0.8-1.8-1.1-3-2.7-3.5-4.6-0.5-2-0.2-3.9 0.8-5.7 1.1-1.8 2.6-2.9 4.6-3.4l12.5-3.3-70.4-91.6 6.7 61z" fill="#EB9FAB" p-id="3269"></path><path d="M285.1 424.8L264 452.7l24.6 3.7-3.5-31.6z" fill="#979FCF" p-id="3270"></path><path d="M672.7 737.1c0.6 2 1.8 3.4 3.7 4.4 38.7 20.6 92.3 14.8 160.7-17.6h0.1c39-16.7 74.9-22.7 107.5-17.9 2 0.3 3.9-0.1 5.5-1.4 1.7-1.2 2.7-2.9 3-4.9 0.3-2-0.2-4-1.4-5.6-1.2-1.7-2.8-2.7-4.9-2.9-35-5.5-73.7 0.8-115.7 18.9-0.1 0-0.2 0.1-0.2 0.1-63 29.9-112.3 35.9-147.8 18-1.8-1-3.7-1.2-5.6-0.5-2 0.7-3.5 1.8-4.4 3.7-1 1.8-1.2 3.7-0.5 5.7z m-22.5 39.6c0.8 1.9 2.1 3.3 4 4.1 60.2 24.2 127 18.9 200.5-15.6 1.9-0.8 3.2-2.2 3.9-4.2s0.6-3.9-0.2-5.7c-0.9-1.9-2.3-3.2-4.3-3.9-1.9-0.7-3.9-0.6-5.7 0.2-69.2 32.5-132 37.5-188.6 15.3-1.9-0.8-3.8-0.8-5.7 0.1-1.9 0.7-3.3 2.1-4 4-0.8 2-0.8 3.9 0.1 5.7z m314.2-52.2c-1.5-1.5-3.3-2.2-5.3-2.2-15.6 0-31.9 2.2-48.9 6.4-2.1 0.5-3.6 1.7-4.6 3.4-1.1 1.8-1.4 3.6-0.9 5.7 0.5 2 1.7 3.6 3.4 4.6 1.8 1.1 3.7 1.3 5.7 0.8 15.8-3.9 30.8-5.9 45.3-5.9 2 0 3.8-0.8 5.3-2.2 1.4-1.5 2.2-3.2 2.2-5.3 0-2.1-0.8-3.8-2.2-5.3z m-818.8-41.1c-1.7 1.2-2.7 2.8-2.9 4.9-0.3 2.1 0.2 3.9 1.4 5.6 1.3 1.6 2.9 2.6 4.9 2.9 16 2.3 27.5 5.5 34.4 9.6 3.5 2.2 5 4.8 4.3 7.8-0.2 0.3-0.3 0.7-0.4 1-0.1 0.2-0.1 0.3-0.2 0.3-4.1 11-4.3 19.8-0.8 26.5 3 7.4 9.9 12.4 20.6 15 15.9 4 43.1 5.1 81.8 3.4 2-0.2 3.8-0.9 5.2-2.5 1.3-1.5 2-3.4 2-5.4-0.2-2-0.9-3.8-2.5-5.1-1.5-1.5-3.3-2.2-5.4-2-36.6 1.6-62.5 0.7-77.5-2.9l-0.1-0.1c-5.2-1.3-8.7-3.4-10.5-6.6-1.5-3.8-1-8.8 1.3-15.1l-0.1 0.3c0.2-0.4 0.3-0.6 0.4-1 0-0.1 0.1-0.2 0.2-0.4 4.3-10.3 0.8-19-10.4-25.9-7.9-5.2-21.4-9-40.1-11.8-2-0.2-3.9 0.2-5.6 1.5z m-85.7-51.2c1.5 1.3 3.4 2 5.4 2 23.3-0.9 44.1-1 62.5-0.4 50.6 1.6 82.5 8.8 95.4 21.4 4.9 5.2 7.3 10.3 7.3 15.5-3.1 21.1 3.5 35.7 19.8 43.8 13.9 7.6 36.4 9.4 67.2 5.4 31.5-4.4 72.8-9.3 123.7-14.9 72.5-8.1 137.2-1.4 194.2 20 2 0.7 3.8 0.7 5.8-0.1 1.8-0.9 3.2-2.3 3.9-4.3 0.7-1.9 0.6-3.8-0.2-5.6-0.8-2-2.2-3.3-4.2-4-59-22.3-126-29.3-201.1-20.9-51.1 5.6-92.4 10.6-124.1 14.9-26.8 3.5-46.2 2.2-58.3-3.8-9.9-5.5-13.9-15-11.8-28.5v-0.6c0.9-9.4-2.9-18.4-11.4-27.3-13.1-14.4-44.8-22.9-95.3-25.5-21.3-1.1-46-1.1-73.9-0.1-2.1 0-3.9 0.8-5.3 2.3-1.4 1.6-2.1 3.4-2 5.4 0 2.1 0.9 3.8 2.4 5.3z m257.8 119.2c0.2 2.1 1.1 3.7 2.7 5.1 1.5 1.4 3.3 2 5.4 1.8 21.6-1.8 45.7-4.2 72.4-7.3 72.5-8 137.2-1.3 194.2 20.1 2 0.8 3.8 0.7 5.8-0.1 1.8-0.9 3.2-2.3 3.9-4.3 0.7-1.9 0.6-3.8-0.2-5.7-0.8-1.9-2.2-3.1-4.2-3.9-59-22.3-126.1-29.3-201.1-21-26.6 3.1-50.5 5.5-72 7.3-2 0.1-3.7 1-5.1 2.6-1.3 1.5-1.9 3.4-1.8 5.4z" fill="#323333" p-id="3271"></path></svg>